<svg width="22" height="21" viewBox="0 0 22 21" fill="none" xmlns="http://www.w3.org/2000/svg">
<path d="M17.3435 7.41239C17.1337 7.34075 16.9225 7.27403 16.7098 7.21223C16.7451 7.06868 16.7776 6.9243 16.8074 6.77911C17.2873 4.44532 16.9735 2.56516 15.9026 1.94624C14.8772 1.35233 13.1956 1.97126 11.4992 3.4511C11.3324 3.59712 11.169 3.74751 11.009 3.90227C10.9024 3.79946 10.793 3.69884 10.6809 3.6004C8.90287 2.01802 7.12074 1.35151 6.05105 1.97249C5.02566 2.56763 4.72092 4.33499 5.15281 6.54696C5.19602 6.76571 5.24455 6.9835 5.29842 7.20034C5.0533 7.26983 4.81025 7.34643 4.56957 7.43003C2.48762 8.15805 1.15625 9.29952 1.15625 10.4832C1.15625 11.7063 2.58523 12.9327 4.75619 13.6763C4.93229 13.7362 5.11002 13.7918 5.28939 13.8432C5.23115 14.0754 5.17961 14.3101 5.13477 14.5475C4.72461 16.7213 5.04453 18.4468 6.06787 19.0383C7.12484 19.649 8.89795 19.0215 10.6263 17.508C10.7631 17.3882 10.8998 17.2617 11.0365 17.1286C11.2093 17.2957 11.3871 17.4578 11.5697 17.615C13.2431 19.058 14.8957 19.6408 15.9174 19.0477C16.9735 18.4349 17.3168 16.581 16.871 14.3256C16.8368 14.1533 16.7974 13.9775 16.7529 13.7981C16.8775 13.7612 16.9996 13.7231 17.1191 13.6837C19.375 12.9343 20.8446 11.7227 20.8446 10.4845C20.8438 9.29501 19.4697 8.14616 17.3435 7.41239ZM12.0525 4.08684C13.5056 2.81905 14.8641 2.31866 15.4834 2.67632C16.1425 3.05735 16.3989 4.5938 15.9846 6.6089C15.9573 6.74015 15.9278 6.87098 15.896 7.00141C15.0288 6.80416 14.1494 6.66494 13.2637 6.5847C12.7565 5.85416 12.2006 5.15872 11.5996 4.50315C11.7468 4.36042 11.8974 4.22165 12.0516 4.08684H12.0525ZM6.96939 11.4947C7.1474 11.8392 7.33348 12.1795 7.52762 12.5156C7.72531 12.8584 7.93135 13.1963 8.14572 13.5291C7.53626 13.4628 6.93061 13.3652 6.33119 13.2366C6.5051 12.6739 6.7192 12.0894 6.96939 11.4947ZM6.96939 9.51239C6.7233 8.93038 6.51494 8.3578 6.34391 7.80491C6.90582 7.67899 7.50465 7.57604 8.12891 7.49811C7.91973 7.8246 7.71848 8.15587 7.52516 8.49192C7.33184 8.82798 7.14617 9.16813 6.96816 9.51239H6.96939ZM7.41646 10.5037C7.67568 9.96315 7.95486 9.43296 8.254 8.91315C8.55287 8.39362 8.87102 7.88598 9.20844 7.39024C9.79414 7.34594 10.3946 7.32257 11.0012 7.32257C11.6079 7.32257 12.212 7.34595 12.7973 7.39065C13.1312 7.8853 13.4474 8.39116 13.746 8.90823C14.0446 9.4253 14.3275 9.95304 14.5946 10.4914C14.331 11.0339 14.0488 11.5663 13.748 12.0886C13.4497 12.6081 13.1353 13.1173 12.8047 13.616C12.2202 13.657 11.6152 13.6796 11 13.6796C10.3848 13.6796 9.79127 13.6603 9.21746 13.623C8.87758 13.1256 8.55684 12.6158 8.25523 12.0935C7.95363 11.5712 7.67363 11.0413 7.41523 10.5037H7.41646ZM14.4761 12.5098C14.6743 12.1658 14.8646 11.8173 15.047 11.4643C15.297 12.0312 15.5177 12.6106 15.7082 13.2001C15.1017 13.3367 14.4885 13.4414 13.8711 13.5139C14.0795 13.1833 14.2811 12.8486 14.4761 12.5098ZM15.0388 9.5128C14.8572 9.1669 14.6684 8.82511 14.4724 8.48741C14.281 8.15436 14.0815 7.82542 13.874 7.50057C14.5019 7.58014 15.1044 7.68596 15.6692 7.81516C15.4876 8.39124 15.2772 8.95783 15.0388 9.5128ZM11.0094 5.10567C11.419 5.55319 11.8057 6.02109 12.1681 6.50759C11.3929 6.47067 10.6172 6.47067 9.8409 6.50759C10.2236 6.00145 10.6153 5.53182 11.0094 5.10567ZM6.47434 2.70134C7.13305 2.31907 8.58951 2.8654 10.1247 4.22999C10.2228 4.31735 10.3216 4.40882 10.42 4.50356C9.81603 5.15904 9.25617 5.85387 8.74414 6.58347C7.86036 6.66309 6.98269 6.8001 6.11668 6.99362C6.06664 6.79237 6.02152 6.58975 5.98133 6.38577C5.61014 4.48962 5.85582 3.06022 6.47434 2.70134ZM5.51416 13.0311C5.3501 12.9844 5.18809 12.9336 5.02813 12.879C4.06836 12.5508 3.27553 12.1226 2.73125 11.6563C2.24398 11.2383 1.99707 10.8212 1.99707 10.4832C1.99707 9.76505 3.06594 8.84876 4.84848 8.22737C5.07242 8.14944 5.29828 8.07821 5.52605 8.01368C5.79079 8.86446 6.11141 9.69684 6.48582 10.5054C6.10695 11.3251 5.78236 12.1688 5.51416 13.0311ZM10.0722 16.8731C9.30811 17.5424 8.54275 18.017 7.86805 18.2561C7.26184 18.4706 6.77908 18.4768 6.48746 18.3082C5.86648 17.9493 5.60809 16.5634 5.96041 14.7046C6.00225 14.4858 6.0501 14.2671 6.10396 14.0483C6.97864 14.2367 7.86512 14.3654 8.75727 14.4334C9.27429 15.1668 9.83878 15.8656 10.4471 16.5252C10.3249 16.6454 10.1998 16.7611 10.0722 16.8731ZM11.0328 15.9207C10.6341 15.4896 10.2363 15.0126 9.84828 14.4999C10.2254 14.5147 10.6093 14.522 11 14.522C11.4011 14.522 11.7982 14.5134 12.1895 14.4958C11.8284 14.9901 11.4423 15.4657 11.0328 15.9207ZM16.1401 17.0933C16.0228 17.7266 15.7869 18.1491 15.4953 18.318C14.8747 18.6782 13.5479 18.2102 12.1173 16.976C11.9532 16.8349 11.7891 16.6836 11.6222 16.5248C12.2187 15.8626 12.77 15.161 13.2723 14.4248C14.1693 14.3488 15.0601 14.2111 15.9383 14.0126C15.9785 14.175 16.014 14.3342 16.0449 14.49C16.2422 15.4867 16.2705 16.3883 16.1401 17.0933ZM16.8538 12.8835C16.7463 12.9191 16.6355 12.9536 16.5232 12.9872C16.2478 12.1324 15.9147 11.2974 15.5261 10.4877C15.9001 9.68893 16.2202 8.86595 16.4842 8.02434C16.6856 8.083 16.8812 8.14452 17.0695 8.20973C18.8914 8.83809 20.0029 9.76833 20.0029 10.4832C20.0029 11.2461 18.8024 12.2362 16.8538 12.8835Z" fill="black"/>
<path d="M11 12.2452C11.3491 12.2464 11.6906 12.1439 11.9814 11.9508C12.2722 11.7577 12.4991 11.4826 12.6335 11.1605C12.7679 10.8383 12.8036 10.4835 12.7362 10.141C12.6688 9.79852 12.5013 9.48373 12.2549 9.2365C12.0085 8.98927 11.6942 8.82073 11.3519 8.75221C11.0097 8.68369 10.6548 8.71828 10.3321 8.8516C10.0095 8.98491 9.73375 9.21096 9.5397 9.50112C9.34566 9.79128 9.24207 10.1325 9.24207 10.4816C9.24158 10.7128 9.28668 10.9419 9.37478 11.1557C9.46288 11.3696 9.59226 11.5639 9.75552 11.7277C9.91878 11.8915 10.1127 12.0215 10.3263 12.1103C10.5398 12.1991 10.7687 12.245 11 12.2452Z" fill="black"/>
</svg>
