<svg width="21" height="21" viewBox="0 0 21 21" fill="none" xmlns="http://www.w3.org/2000/svg">
<path d="M20.3438 7.21875C20.343 6.52279 20.0662 5.85555 19.5741 5.36343C19.0819 4.87132 18.4147 4.59451 17.7188 4.59375H15.75V3.9375C15.7495 3.41552 15.5419 2.91508 15.1728 2.54598C14.8037 2.17689 14.3032 1.96929 13.7812 1.96875H7.21875C6.69677 1.96929 6.19633 2.17689 5.82723 2.54598C5.45814 2.91508 5.25054 3.41552 5.25 3.9375V4.59375H3.28125C2.58529 4.59451 1.91805 4.87132 1.42593 5.36343C0.933816 5.85555 0.65701 6.52279 0.65625 7.21875V9.1875H20.3438V7.21875ZM14.4375 4.59375H6.5625V3.9375C6.5625 3.76345 6.63164 3.59653 6.75471 3.47346C6.87778 3.35039 7.0447 3.28125 7.21875 3.28125H13.7812C13.9553 3.28125 14.1222 3.35039 14.2453 3.47346C14.3684 3.59653 14.4375 3.76345 14.4375 3.9375V4.59375ZM13.7812 10.8281C13.7812 11.0892 13.6775 11.3396 13.4929 11.5242C13.3083 11.7088 13.0579 11.8125 12.7969 11.8125H8.20312C7.94205 11.8125 7.69167 11.7088 7.50707 11.5242C7.32246 11.3396 7.21875 11.0892 7.21875 10.8281V10.6641C7.21875 10.6206 7.20147 10.5788 7.1707 10.5481C7.13993 10.5173 7.0982 10.5 7.05469 10.5H0.65625V16.4062C0.65625 17.1024 0.932812 17.7701 1.42509 18.2624C1.91738 18.7547 2.58506 19.0312 3.28125 19.0312H17.7188C18.4149 19.0312 19.0826 18.7547 19.5749 18.2624C20.0672 17.7701 20.3438 17.1024 20.3438 16.4062V10.5H13.9453C13.9018 10.5 13.8601 10.5173 13.8293 10.5481C13.7985 10.5788 13.7812 10.6206 13.7812 10.6641V10.8281Z" fill="white"/>
</svg>
