<svg width="46" height="48" viewBox="0 0 46 48" fill="none" xmlns="http://www.w3.org/2000/svg">
<path d="M23 3.4375C11.8863 3.4375 2.875 12.8834 2.875 24.5232C2.875 33.8406 8.64297 41.7352 16.6391 44.5258C16.7512 44.5507 16.8657 44.563 16.9805 44.5625C17.7262 44.5625 18.0137 44.0025 18.0137 43.516C18.0137 43.0111 17.9957 41.6893 17.9867 39.9268C17.321 40.0862 16.64 40.1693 15.9563 40.1746C12.084 40.1746 11.2035 37.0994 11.2035 37.0994C10.2871 34.6668 8.96641 34.015 8.96641 34.015C7.21445 32.7574 8.95742 32.7207 9.09219 32.7207H9.10117C11.1227 32.9043 12.1828 34.9055 12.1828 34.9055C13.1891 36.7047 14.5367 37.2096 15.7406 37.2096C16.5367 37.1933 17.3204 37.0056 18.0406 36.6588C18.2203 35.3002 18.7414 34.373 19.3164 33.8406C14.8512 33.3082 10.1523 31.4998 10.1523 23.4217C10.1523 21.1176 10.934 19.2357 12.2188 17.767C12.0121 17.2346 11.3203 15.0865 12.4164 12.1857C12.5634 12.1498 12.7145 12.1344 12.8656 12.1398C13.5934 12.1398 15.2375 12.4244 17.9508 14.3521C21.2476 13.4097 24.7344 13.4097 28.0312 14.3521C30.7445 12.4244 32.3887 12.1398 33.1164 12.1398C33.2675 12.1344 33.4186 12.1498 33.5656 12.1857C34.6617 15.0865 33.9699 17.2346 33.7633 17.767C35.048 19.2449 35.8297 21.1268 35.8297 23.4217C35.8297 31.5182 31.1219 33.299 26.6387 33.8223C27.3574 34.474 28.0043 35.7592 28.0043 37.7236C28.0043 40.5418 27.9773 42.8184 27.9773 43.5068C27.9773 44.0025 28.2559 44.5625 29.0016 44.5625C29.1223 44.563 29.2427 44.5507 29.3609 44.5258C37.366 41.7352 43.125 33.8314 43.125 24.5232C43.125 12.8834 34.1137 3.4375 23 3.4375Z" fill="white"/>
</svg>
