<svg width="21" height="21" viewBox="0 0 21 21" fill="none" xmlns="http://www.w3.org/2000/svg">
<path d="M10.5 10.5C9.94752 10.5 9.39504 10.402 8.96438 10.2059L2.89406 7.43777C2.61639 7.31145 1.96875 6.94189 1.96875 6.24422C1.96875 5.54654 2.61639 5.17781 2.89488 5.04984L9.0177 2.25791C9.86139 1.87236 11.1345 1.87236 11.9786 2.25791L18.1051 5.04984C18.3836 5.17658 19.0312 5.54613 19.0312 6.24422C19.0312 6.94231 18.3836 7.31063 18.1051 7.43818L12.0348 10.2059C11.605 10.402 11.0525 10.5 10.5 10.5Z" fill="white"/>
<path d="M18.1027 9.30275L17.4837 9.02344L15.8936 9.75105L12.0381 11.5147C11.6074 11.7116 11.0537 11.8096 10.5025 11.8096C9.95121 11.8096 9.39791 11.7116 8.96766 11.5147L5.10932 9.75105L3.51873 9.02344L2.89447 9.30398C2.61639 9.43072 1.96875 9.80273 1.96875 10.5C1.96875 11.1973 2.61639 11.5697 2.89406 11.6964L8.96438 14.4703C9.39258 14.6672 9.94588 14.7656 10.5 14.7656C11.0541 14.7656 11.605 14.6672 12.0356 14.4707L18.1006 11.6977C18.3799 11.5709 19.0312 11.201 19.0312 10.5C19.0312 9.79904 18.3844 9.43072 18.1027 9.30275Z" fill="white"/>
<path d="M18.1027 13.568L17.4837 13.2891L15.8936 14.0163L12.0381 15.7779C11.6074 15.9739 11.0537 16.0724 10.5025 16.0724C9.95121 16.0724 9.39791 15.9744 8.96766 15.7779L5.10932 14.0142L3.51873 13.2891L2.89447 13.5696C2.61639 13.6963 1.96875 14.0684 1.96875 14.7656C1.96875 15.4629 2.61639 15.8349 2.89406 15.9612L8.96438 18.7335C9.39258 18.9295 9.94793 19.0312 10.5 19.0312C11.0521 19.0312 11.6025 18.9295 12.0332 18.7331L18.1002 15.9616C18.3799 15.8353 19.0312 15.4654 19.0312 14.7656C19.0312 14.0659 18.3844 13.6963 18.1027 13.568Z" fill="white"/>
</svg>
