<svg width="46" height="48" viewBox="0 0 46 48" fill="none" xmlns="http://www.w3.org/2000/svg">
<path d="M39.9059 3.4375H6.31422C4.47871 3.4375 2.875 4.78691 2.875 6.64029V41.0384C2.875 42.9019 4.47871 44.5625 6.31422 44.5625H39.896C41.7414 44.5625 43.125 42.8909 43.125 41.0384V6.64029C43.1358 4.78691 41.7414 3.4375 39.9059 3.4375ZM15.3516 37.7172H9.58543V19.3991H15.3516V37.7172ZM12.668 16.614H12.6266C10.7812 16.614 9.58633 15.2104 9.58633 13.4535C9.58633 11.6643 10.8127 10.2938 12.6994 10.2938C14.5861 10.2938 15.7406 11.6542 15.782 13.4535C15.7811 15.2104 14.5861 16.614 12.668 16.614ZM36.4254 37.7172H30.6592V27.7013C30.6592 25.3017 29.82 23.6622 27.7339 23.6622C26.14 23.6622 25.1967 24.7638 24.7771 25.8369C24.6199 26.2224 24.5777 26.7475 24.5777 27.2836V37.7172H18.8115V19.3991H24.5777V21.9483C25.4168 20.7274 26.7276 18.9704 29.7778 18.9704C33.5629 18.9704 36.4263 21.5196 36.4263 27.0155L36.4254 37.7172Z" fill="white"/>
</svg>
