<svg width="22" height="21" viewBox="0 0 22 21" fill="none" xmlns="http://www.w3.org/2000/svg">
<path d="M1.8125 1.3125V19.6875H20.1875V1.3125H1.8125ZM11.6562 15.5859C11.6562 17.3746 10.5997 18.2466 9.07021 18.2466C7.68881 18.2466 6.88695 17.5313 6.48008 16.6679L7.88609 15.8169C8.15721 16.298 8.36311 16.7048 8.95496 16.7048C9.44715 16.7048 9.85156 16.4829 9.85156 15.6196V9.84375H11.6562V15.5859ZM15.7312 18.2056C14.1279 18.2056 13.0918 17.4821 12.5861 16.4829L13.9941 15.668C14.3633 16.2725 14.8452 16.6753 15.6963 16.6753C16.4116 16.6753 16.8271 16.3587 16.8271 15.8653C16.8271 15.2734 16.3993 15.0638 15.6097 14.7168L15.1783 14.5314C13.9322 14.0015 13.1062 13.3354 13.1062 11.929C13.1062 10.6341 14.0926 9.6883 15.6344 9.6883C16.7323 9.6883 17.5211 10.0296 18.0891 11.0287L16.7422 11.8945C16.4461 11.3642 16.127 11.1562 15.6323 11.1562C15.1266 11.1562 14.8058 11.477 14.8058 11.8945C14.8058 12.4126 15.1266 12.6221 15.8665 12.9429L16.298 13.1279C17.7659 13.7571 18.5924 14.3994 18.5924 15.8415C18.5928 17.396 17.3718 18.2056 15.7312 18.2056Z" fill="black"/>
</svg>
