<svg width="20" height="21" viewBox="0 0 20 21" fill="none" xmlns="http://www.w3.org/2000/svg">
<g clip-path="url(#clip0_31_722)">
<mask id="mask0_31_722" style="mask-type:luminance" maskUnits="userSpaceOnUse" x="0" y="0" width="20" height="21">
<path d="M0 0.5H20V20.5H0V0.5Z" fill="white"/>
</mask>
<g mask="url(#mask0_31_722)">
<path d="M19.5242 0.500003H0.475001C0.412553 0.500003 0.350717 0.512317 0.293033 0.53624C0.235349 0.560163 0.182949 0.595226 0.13883 0.639422C0.0947113 0.683618 0.0597404 0.73608 0.0359185 0.793806C0.0120966 0.851532 -0.000108826 0.913388 7.32346e-07 0.975836V20.025C-0.000109045 20.0875 0.0121238 20.1494 0.0359978 20.2072C0.0598718 20.265 0.0949172 20.3175 0.139124 20.3617C0.183331 20.4059 0.23583 20.441 0.293611 20.4648C0.351391 20.4887 0.413316 20.5009 0.475834 20.5008H19.525C19.5875 20.5009 19.6494 20.4887 19.7072 20.4648C19.765 20.441 19.8175 20.4059 19.8617 20.3617C19.9059 20.3175 19.941 20.265 19.9648 20.2072C19.9887 20.1494 20.0009 20.0875 20.0008 20.025V0.975003C20.0008 0.912485 19.9885 0.850581 19.9645 0.792843C19.9405 0.735104 19.9054 0.682666 19.8611 0.638537C19.8168 0.594407 19.7643 0.559453 19.7065 0.535681C19.6486 0.511908 19.5867 0.499784 19.5242 0.500003ZM11.905 11.1883H9.52417V18.595H7.61917V11.1883H5.23833V9.5475H11.905V11.1883ZM12.4383 18.1717V16.1925C12.4383 16.1925 13.52 17.0075 14.8175 17.0075C16.115 17.0075 16.065 16.1592 16.065 16.0425C16.065 14.8117 12.3883 14.8117 12.3883 12.0833C12.3883 8.37334 17.7458 9.8375 17.7458 9.8375L17.6792 11.6008C17.6792 11.6008 16.7808 11.0017 15.7658 11.0017C14.7508 11.0017 14.385 11.485 14.385 12C14.385 13.3308 18.095 13.1983 18.095 15.8767C18.095 20.0017 12.4383 18.1725 12.4383 18.1725" fill="black"/>
</g>
</g>
<defs>
<clipPath id="clip0_31_722">
<rect width="20" height="20" fill="white" transform="translate(0 0.5)"/>
</clipPath>
</defs>
</svg>
