<svg width="24" height="25" viewBox="0 0 24 25" fill="none" xmlns="http://www.w3.org/2000/svg">
<path d="M12 6.5C9.33 6.5 7.67 7.83 7 10.5C8 9.17 9.17 8.67 10.5 9C11.26 9.19 11.81 9.74 12.41 10.35C13.39 11.35 14.5 12.5 17 12.5C19.67 12.5 21.33 11.17 22 8.5C21 9.83 19.83 10.33 18.5 10C17.74 9.81 17.2 9.26 16.59 8.65C15.61 7.65 14.5 6.5 12 6.5ZM7 12.5C4.33 12.5 2.67 13.83 2 16.5C3 15.17 4.17 14.67 5.5 15C6.26 15.19 6.8 15.74 7.41 16.35C8.39 17.35 9.5 18.5 12 18.5C14.67 18.5 16.33 17.17 17 14.5C16 15.83 14.83 16.33 13.5 16C12.74 15.81 12.2 15.26 11.59 14.65C10.61 13.65 9.5 12.5 7 12.5Z" fill="black"/>
</svg>
