<svg width="24" height="24" viewBox="0 0 24 24" fill="none" xmlns="http://www.w3.org/2000/svg">
<path d="M19.914 5.88807C16.54 1.51807 10.26 0.710073 5.88801 4.08607C1.51801 7.46007 0.710012 13.7401 4.08601 18.1121C7.46101 22.4821 13.741 23.2901 18.112 19.9141L18.114 19.9121C22.483 16.5361 23.289 10.2581 19.914 5.88807ZM17.355 8.38307L16.575 7.61507L16.406 7.44707L16.453 7.40007L17.637 6.28207C17.849 6.53907 17.965 6.86207 17.965 7.19707C17.964 7.58707 17.808 7.96207 17.531 8.23807C17.4757 8.29141 17.417 8.33974 17.355 8.38307ZM6.69801 16.7381L6.83701 16.8681L7.56201 17.5931L5.94801 17.4881L6.69801 16.7381ZM16.49 5.73007C16.815 5.73207 17.131 5.84007 17.39 6.03807L16.09 7.34607C16.0707 7.36159 16.0559 7.38195 16.047 7.40507L16.046 7.41007L16.044 7.41607C16.0367 7.44108 16.0371 7.46771 16.0451 7.49249C16.0532 7.51728 16.0684 7.53908 16.089 7.55507L17.073 8.53807C16.8039 8.65509 16.5058 8.68829 16.2175 8.63334C15.9292 8.5784 15.6642 8.43787 15.457 8.23007C15.2536 8.02476 15.1153 7.76406 15.0593 7.48055C15.0032 7.19704 15.032 6.90331 15.142 6.63607C15.2517 6.36855 15.4384 6.13962 15.6784 5.97833C15.9184 5.81703 16.2009 5.73063 16.49 5.73007ZM15.581 8.99607C15.5792 9.05964 15.5642 9.12215 15.537 9.17963C15.5098 9.23712 15.471 9.28835 15.423 9.33007L11.528 12.7191L11.515 12.7301L11.373 12.5881L11.311 12.5261L11.281 12.4961L11.194 12.4091L11.161 12.3761L11.094 12.3091L14.781 8.65507C14.8562 8.57835 14.9558 8.53034 15.0627 8.51938C15.1695 8.50843 15.2768 8.5352 15.366 8.59507C15.3925 8.61267 15.4173 8.63276 15.44 8.65507L15.477 8.69307C15.509 8.74107 15.5367 8.79107 15.56 8.84307C15.5753 8.89307 15.5823 8.94407 15.581 8.99607ZM11.083 12.7361L11.09 12.7551L11.124 12.7881L11.27 12.9311L11.216 12.9381L10.407 13.0371L10.507 12.9371L10.898 12.5471L11.083 12.7361ZM15.013 8.23707C14.8463 8.25905 14.6915 8.33572 14.573 8.45507L10.898 12.1131L10.178 11.3931C12.083 9.49507 13.248 8.50507 13.973 8.18007C14.1309 8.08059 14.3158 8.03263 14.5021 8.04284C14.6884 8.05306 14.867 8.12093 15.013 8.23707ZM9.96501 11.6051L9.98001 11.6201L10.575 12.2151L9.02301 12.5471L9.96501 11.6051ZM7.93201 16.4631C7.88341 16.4859 7.84431 16.5249 7.82148 16.5735C7.79865 16.6221 7.79353 16.6771 7.80701 16.7291L7.97301 17.4541C7.97927 17.4626 7.98264 17.473 7.98264 17.4836C7.98264 17.4942 7.97927 17.5045 7.97301 17.5131C7.96389 17.5211 7.95216 17.5255 7.94001 17.5255C7.92787 17.5255 7.91614 17.5211 7.90701 17.5131L6.92301 16.5211L9.95301 13.4461L11.522 13.2031L12.098 13.7791C10.823 14.8389 9.42411 15.7402 7.93201 16.4631ZM12.373 13.5631L11.765 12.9551L15.594 9.59707C15.322 10.6771 13.878 12.1411 12.373 13.5631ZM17.648 7.01307C17.6323 6.98664 17.6074 6.96693 17.5781 6.9577C17.5487 6.94848 17.517 6.95039 17.489 6.96307C17.4753 6.97015 17.4632 6.97985 17.4533 6.99162C17.4434 7.0034 17.4359 7.01702 17.4312 7.03169C17.4266 7.04637 17.4249 7.06182 17.4262 7.07716C17.4275 7.0925 17.4319 7.10742 17.439 7.12107C17.4677 7.18138 17.4791 7.24849 17.4719 7.31489C17.4646 7.38129 17.4391 7.44437 17.398 7.49707C17.3874 7.50716 17.3791 7.51947 17.3737 7.53312C17.3684 7.54677 17.3661 7.56144 17.367 7.57607C17.367 7.60674 17.377 7.63307 17.397 7.65507C17.4187 7.66278 17.4423 7.66278 17.464 7.65507C17.4835 7.66004 17.5039 7.65959 17.5231 7.65378C17.5423 7.64796 17.5596 7.637 17.573 7.62207C17.6423 7.53828 17.6862 7.43643 17.6995 7.32853C17.7127 7.22062 17.6949 7.11117 17.648 7.01307Z" fill="black"/>
</svg>
