<svg width="24" height="25" viewBox="0 0 24 25" fill="none" xmlns="http://www.w3.org/2000/svg">
<g clip-path="url(#clip0_31_745)">
<mask id="mask0_31_745" style="mask-type:luminance" maskUnits="userSpaceOnUse" x="0" y="0" width="24" height="25">
<path d="M0 0.5H24V24.5H0V0.5Z" fill="white"/>
</mask>
<g mask="url(#mask0_31_745)">
<path d="M11.914 0.5C5.82 0.5 6.2 3.156 6.2 3.156L6.207 5.908H12.021V6.734H3.9C3.9 6.734 0 6.289 0 12.469C0 18.649 3.403 18.429 3.403 18.429H5.433V15.562C5.433 15.562 5.324 12.142 8.783 12.142H14.549C14.549 12.142 17.789 12.194 17.789 8.994V3.702C17.789 3.702 18.281 0.5 11.914 0.5ZM8.708 2.35C9.286 2.35 9.754 2.82 9.754 3.402C9.754 3.983 9.286 4.453 8.708 4.453C8.13 4.453 7.662 3.983 7.662 3.402C7.662 2.82 8.129 2.35 8.708 2.35Z" fill="black"/>
<path d="M12.087 24.5C18.179 24.5 17.799 21.844 17.799 21.844L17.792 19.092H11.978V18.266H20.101C20.101 18.266 24.001 18.711 24.001 12.531C24.001 6.35104 20.597 6.57104 20.597 6.57104H18.567V9.43804C18.567 9.43804 18.676 12.858 15.217 12.858H9.452C9.452 12.858 6.212 12.806 6.212 16.006V21.298C6.212 21.298 5.72 24.5 12.087 24.5ZM15.293 22.65C14.714 22.65 14.247 22.18 14.247 21.598C14.247 21.017 14.714 20.547 15.293 20.547C15.871 20.547 16.339 21.017 16.339 21.598C16.339 22.18 15.871 22.65 15.293 22.65Z" fill="black"/>
</g>
</g>
<defs>
<clipPath id="clip0_31_745">
<rect width="24" height="24" fill="white" transform="translate(0 0.5)"/>
</clipPath>
</defs>
</svg>
