<svg width="24" height="24" viewBox="0 0 24 24" fill="none" xmlns="http://www.w3.org/2000/svg">
<g clip-path="url(#clip0_31_875)">
<path d="M10.2535 0.620605L4.22153 3.87011C3.53995 4.23883 2.97067 4.78488 2.5739 5.45053C2.17714 6.11618 1.96763 6.87668 1.96753 7.65161V14.3501C1.96754 15.1251 2.17701 15.8857 2.57378 16.5515C2.97055 17.2172 3.53987 17.7633 4.22153 18.1321M12.0555 15.3336L10.6425 14.5551C9.96866 14.1838 9.40675 13.6386 9.01539 12.9762C8.62403 12.3138 8.41757 11.5585 8.41753 10.7891V8.75311" stroke="black" stroke-width="1.5" stroke-linecap="round" stroke-linejoin="round"/>
<path d="M15.583 8.63745V10.8625C15.583 11.6375 15.3735 12.3981 14.9767 13.0638C14.58 13.7296 14.0106 14.2757 13.329 14.6445L7.59598 17.7455C7.02931 18.0518 6.40105 18.227 5.7576 18.258C5.11415 18.289 4.47196 18.175 3.87848 17.9245C3.98848 17.9985 4.10298 18.0675 4.22198 18.1315L9.95448 21.2325C10.5827 21.5722 11.2857 21.7501 12 21.7501C12.7142 21.7501 13.4172 21.5722 14.0455 21.2325L19.778 18.1315C20.4596 17.7627 21.0288 17.2167 21.4256 16.551C21.8224 15.8854 22.0319 15.1249 22.032 14.35" stroke="black" stroke-width="1.5" stroke-linecap="round" stroke-linejoin="round"/>
<path d="M19.7785 3.86957L14.046 0.768065C13.4673 0.454947 12.8244 0.278821 12.1669 0.253249C11.5094 0.227677 10.8548 0.353341 10.2535 0.620565C9.68648 1.0169 9.22346 1.5442 8.90374 2.15769C8.58403 2.77119 8.41705 3.45276 8.41699 4.14456V8.63756L10.061 7.80707C10.6622 7.50332 11.3264 7.34507 12 7.34507C12.6736 7.34507 13.3378 7.50332 13.939 7.80707L19.6715 10.7036C20.367 11.0549 20.954 11.5887 21.3696 12.2478C21.7853 12.9069 22.0141 13.6665 22.0315 14.4456L22.032 14.3501V7.65106C22.0319 6.87619 21.8225 6.11573 21.4258 5.45008C21.0292 4.78444 20.46 4.23835 19.7785 3.86957Z" stroke="black" stroke-width="1.5" stroke-linecap="round" stroke-linejoin="round"/>
</g>
<defs>
<clipPath id="clip0_31_875">
<rect width="24" height="24" fill="white"/>
</clipPath>
</defs>
</svg>
