<svg width="22" height="21" viewBox="0 0 22 21" fill="none" xmlns="http://www.w3.org/2000/svg">
<path d="M17.8906 3.28125H4.10938C3.50041 3.2819 2.91657 3.5241 2.48596 3.95471C2.05535 4.38532 1.81315 4.96916 1.8125 5.57812V15.4219C1.81315 16.0308 2.05535 16.6147 2.48596 17.0453C2.91657 17.4759 3.50041 17.7181 4.10938 17.7188H17.8906C18.4996 17.7181 19.0834 17.4759 19.514 17.0453C19.9446 16.6147 20.1868 16.0308 20.1875 15.4219V5.57812C20.1868 4.96916 19.9446 4.38532 19.514 3.95471C19.0834 3.5241 18.4996 3.2819 17.8906 3.28125ZM17.309 7.08053L11.4028 11.6743C11.2876 11.7638 11.1459 11.8124 11 11.8124C10.8541 11.8124 10.7124 11.7638 10.5972 11.6743L4.69098 7.08053C4.62158 7.02812 4.5633 6.96245 4.5195 6.88733C4.47571 6.8122 4.44729 6.72912 4.43588 6.64292C4.42447 6.55671 4.43031 6.4691 4.45306 6.38517C4.47581 6.30124 4.51501 6.22267 4.56838 6.15402C4.62176 6.08537 4.68824 6.02801 4.76398 5.98528C4.83971 5.94255 4.92318 5.9153 5.00954 5.9051C5.0959 5.89491 5.18342 5.90198 5.26702 5.92591C5.35062 5.94984 5.42863 5.99014 5.49652 6.04447L11 10.3249L16.5035 6.04447C16.6411 5.94055 16.8141 5.89497 16.985 5.91759C17.156 5.94021 17.3112 6.02921 17.417 6.16536C17.5229 6.3015 17.5709 6.47383 17.5507 6.64509C17.5305 6.81635 17.4437 6.97277 17.309 7.08053Z" fill="black"/>
</svg>
