<svg width="21" height="21" viewBox="0 0 21 21" fill="none" xmlns="http://www.w3.org/2000/svg">
<path d="M10.5 4.59375C11.7685 4.59375 12.7969 3.5654 12.7969 2.29688C12.7969 1.02835 11.7685 0 10.5 0C9.23147 0 8.20312 1.02835 8.20312 2.29688C8.20312 3.5654 9.23147 4.59375 10.5 4.59375Z" fill="white"/>
<path d="M12.4688 5.25H8.53125C7.83569 5.25206 7.1692 5.52928 6.67737 6.02112C6.18553 6.51295 5.90831 7.17944 5.90625 7.875V12.285C5.90625 12.73 6.25201 13.1086 6.69662 13.1246C6.8068 13.1286 6.91667 13.1104 7.01965 13.071C7.12263 13.0316 7.21661 12.9718 7.29598 12.8953C7.37534 12.8188 7.43847 12.727 7.48158 12.6256C7.52468 12.5241 7.54689 12.4149 7.54688 12.3047V8.2142C7.54583 8.12955 7.57683 8.04763 7.63365 7.98487C7.69047 7.92212 7.76892 7.88316 7.85326 7.87582C7.89814 7.87284 7.94316 7.87912 7.98552 7.89427C8.02787 7.90942 8.06666 7.93312 8.09947 7.96389C8.13228 7.99466 8.15841 8.03185 8.17624 8.07315C8.19407 8.11444 8.20322 8.15896 8.20312 8.20395V20.0566C8.20312 20.3068 8.30251 20.5468 8.47943 20.7237C8.65634 20.9006 8.89629 21 9.14648 21C9.39668 21 9.63663 20.9006 9.81354 20.7237C9.99045 20.5468 10.0898 20.3068 10.0898 20.0566V14.2054C10.0884 14.0994 10.127 13.9969 10.198 13.9182C10.2689 13.8396 10.367 13.7907 10.4725 13.7812C10.5286 13.7775 10.585 13.7853 10.6379 13.8042C10.6909 13.8231 10.7394 13.8527 10.7805 13.8912C10.8215 13.9297 10.8542 13.9762 10.8765 14.0278C10.8988 14.0795 10.9103 14.1352 10.9102 14.1914V20.0566C10.9102 20.3068 11.0095 20.5468 11.1865 20.7237C11.3634 20.9006 11.6033 21 11.8535 21C12.1037 21 12.3437 20.9006 12.5206 20.7237C12.6975 20.5468 12.7969 20.3068 12.7969 20.0566V8.2142C12.7958 8.12955 12.8268 8.04763 12.8837 7.98487C12.9405 7.92212 13.0189 7.88316 13.1033 7.87582C13.1481 7.87284 13.1932 7.87912 13.2355 7.89427C13.2779 7.90942 13.3167 7.93312 13.3495 7.96389C13.3823 7.99466 13.4084 8.03185 13.4262 8.07315C13.4441 8.11444 13.4532 8.15896 13.4531 8.20395V12.2858C13.4531 12.7308 13.7989 13.1094 14.2435 13.1254C14.3537 13.1294 14.4637 13.1112 14.5667 13.0717C14.6697 13.0323 14.7638 12.9725 14.8431 12.8959C14.9225 12.8192 14.9856 12.7274 15.0287 12.6258C15.0718 12.5242 15.0939 12.415 15.0938 12.3047V7.875C15.0917 7.17944 14.8145 6.51295 14.3226 6.02112C13.8308 5.52928 13.1643 5.25206 12.4688 5.25Z" fill="white"/>
</svg>
