<svg width="25" height="25" viewBox="0 0 25 25" fill="none" xmlns="http://www.w3.org/2000/svg">
<g clip-path="url(#clip0_31_776)">
<path d="M16.4062 0.78125H8.59375C7.29933 0.78125 6.25 1.83058 6.25 3.125V21.875C6.25 23.1694 7.29933 24.2188 8.59375 24.2188H16.4062C17.7007 24.2188 18.75 23.1694 18.75 21.875V3.125C18.75 1.83058 17.7007 0.78125 16.4062 0.78125Z" stroke="black" stroke-width="2" stroke-linecap="round" stroke-linejoin="round"/>
<path d="M8.59375 0.78125H9.76562C9.86923 0.78125 9.96858 0.822405 10.0418 0.895661C10.1151 0.968918 10.1562 1.06827 10.1562 1.17188C10.1562 1.37908 10.2386 1.57779 10.3851 1.7243C10.5316 1.87082 10.7303 1.95312 10.9375 1.95312H14.0625C14.2697 1.95312 14.4684 1.87082 14.6149 1.7243C14.7614 1.57779 14.8438 1.37908 14.8438 1.17188C14.8438 1.06827 14.8849 0.968918 14.9582 0.895661C15.0314 0.822405 15.1308 0.78125 15.2344 0.78125H16.4062" stroke="black" stroke-width="2" stroke-linecap="round" stroke-linejoin="round"/>
</g>
<defs>
<clipPath id="clip0_31_776">
<rect width="25" height="25" fill="white"/>
</clipPath>
</defs>
</svg>
