<svg width="21" height="21" viewBox="0 0 21 21" fill="none" xmlns="http://www.w3.org/2000/svg">
<path d="M10.5 15.0937C10.3858 15.0937 10.2735 15.0639 10.1743 15.0072L4.42969 11.7239C4.37977 11.6951 4.32314 11.6799 4.2655 11.6799C4.20787 11.68 4.15125 11.6952 4.10135 11.724C4.05146 11.7529 4.01004 11.7944 3.98128 11.8443C3.95251 11.8943 3.93742 11.9509 3.9375 12.0085V15.0937C3.9374 15.2109 3.96865 15.3259 4.02801 15.4269C4.08737 15.5278 4.17267 15.6111 4.27506 15.668L10.1813 18.9492C10.2788 19.0034 10.3885 19.0318 10.5 19.0318C10.6115 19.0318 10.7212 19.0034 10.8187 18.9492L16.7249 15.668C16.8273 15.6111 16.9126 15.5278 16.972 15.4269C17.0313 15.3259 17.0626 15.2109 17.0625 15.0937V12.0085C17.0626 11.9509 17.0475 11.8943 17.0187 11.8443C16.99 11.7944 16.9485 11.7529 16.8986 11.724C16.8488 11.6952 16.7921 11.68 16.7345 11.6799C16.6769 11.6799 16.6202 11.6951 16.5703 11.7239L10.8257 15.0072C10.7265 15.0639 10.6142 15.0937 10.5 15.0937Z" fill="white"/>
<path d="M20.3403 7.8135V7.80899C20.3296 7.70497 20.2943 7.60499 20.2372 7.51738C20.1802 7.42976 20.103 7.35706 20.0121 7.30532L10.8246 2.05532C10.7254 1.99863 10.6132 1.96881 10.499 1.96881C10.3847 1.96881 10.2725 1.99863 10.1733 2.05532L0.985797 7.30532C0.885385 7.36273 0.80193 7.44566 0.743887 7.5457C0.685844 7.64575 0.655273 7.75936 0.655273 7.87503C0.655273 7.99069 0.685844 8.1043 0.743887 8.20435C0.80193 8.30439 0.885385 8.38732 0.985797 8.44473L10.1733 13.6947C10.2725 13.7514 10.3847 13.7812 10.499 13.7812C10.6132 13.7812 10.7254 13.7514 10.8246 13.6947L18.908 9.07596C18.9205 9.06875 18.9347 9.06496 18.9491 9.06497C18.9635 9.06499 18.9777 9.06881 18.9902 9.07604C19.0026 9.08328 19.013 9.09368 19.0202 9.1062C19.0273 9.11872 19.0311 9.1329 19.031 9.14733V15.0753C19.031 15.4285 19.3026 15.7316 19.6557 15.7492C19.7444 15.7535 19.8331 15.7397 19.9164 15.7087C19.9996 15.6777 20.0757 15.6301 20.14 15.5688C20.2043 15.5075 20.2555 15.4338 20.2905 15.3522C20.3255 15.2705 20.3435 15.1826 20.3435 15.0938V7.87503C20.3435 7.85448 20.3424 7.83394 20.3403 7.8135Z" fill="white"/>
</svg>
