<svg width="21" height="21" viewBox="0 0 21 21" fill="none" xmlns="http://www.w3.org/2000/svg">
<path d="M0.65625 1.80469V19.1953C0.65625 19.3258 0.708105 19.451 0.800408 19.5433C0.892711 19.6356 1.0179 19.6875 1.14844 19.6875H19.8516C19.9821 19.6875 20.1073 19.6356 20.1996 19.5433C20.2919 19.451 20.3438 19.3258 20.3438 19.1953V1.80469C20.3438 1.67415 20.2919 1.54896 20.1996 1.45666C20.1073 1.36436 19.9821 1.3125 19.8516 1.3125H1.14844C1.0179 1.3125 0.892711 1.36436 0.800408 1.45666C0.708105 1.54896 0.65625 1.67415 0.65625 1.80469ZM3.01506 9.74121L6.16834 7.21875L3.01506 4.69629L3.83537 3.6709L8.26916 7.21875L3.83496 10.7662L3.01506 9.74121ZM11.1562 10.5H7.21875V9.1875H11.1562V10.5Z" fill="white"/>
</svg>
